PathFileType	4	(X/Y/Z)	/Users/niels/Desktop/University/Third Semester/Perception and Action/Exam/Gymnastics Motion Tracking/Code for Gym Tracking/Analyzed Data/Webcam_Backflip/id4_5_baseline_Sports2D/id4_5_baseline_Sports2D_px_person00.trc
DataRate	CameraRate	NumFrames	NumMarkers	Units	OrigDataRate	OrigDataStartFrame	OrigNumFrames
29.8125	29.8125	11	22	m	29.8125	80	160
Frame#	Time	Hip			RHip			RKnee			RAnkle			RBigToe			RSmallToe			RHeel			LHip			LKnee			LAnkle			LBigToe			LSmallToe			LHeel			Neck			Head			Nose			RShoulder			RElbow			RWrist			LShoulder			LElbow			LWrist		
		X1	Y1	Z1	X2	Y2	Z2	X3	Y3	Z3	X4	Y4	Z4	X5	Y5	Z5	X6	Y6	Z6	X7	Y7	Z7	X8	Y8	Z8	X9	Y9	Z9	X10	Y10	Z10	X11	Y11	Z11	X12	Y12	Z12	X13	Y13	Z13	X14	Y14	Z14	X15	Y15	Z15	X16	Y16	Z16	X17	Y17	Z17	X18	Y18	Z18	X19	Y19	Z19	X20	Y20	Z20	X21	Y21	Z21	X22	Y22	Z22
80	2.683438155136268	0.8150561846619205	-0.5316369130955947	0.0	0.8118668130135397	-0.5331408133397555	0.0	0.8784276869899357	-0.6274132370815304	0.0	0.8300384744850212	-0.7249282706621232	0.0	0.8628399768296219	-0.7524851412395814	0.0	0.8525945759160336	-0.7532115539967182	0.0	0.8159319997302187	-0.7388786644442776	0.0	0.8224485038640001	-0.5313615532540805	0.0	0.8806064998287301	-0.6236498821575732	0.0	0.8273173475620974	-0.7161979442233185	0.0	0.8577035307436089	-0.7496185794327295	0.0	0.8531020709751486	-0.7434304551533341	0.0	0.8119210437337367	-0.7280804481149797	0.0	0.8270885919262743	-0.3922601008599234	0.0	0.8635240995445731	-0.3260111803117896	0.0	0.8636553079999951	-0.35921675156429594	0.0	0.8194044715785868	-0.4002923376988722	0.0	0.8758105277598782	-0.3647711130726978	0.0	0.9158554653818445	-0.31985519478454844	0.0	0.8321910801073148	-0.39824727547566374	0.0	0.8800582504517849	-0.361640592097649	0.0	0.9179197957205885	-0.31811473482993713	0.0
81	2.716981132075471	0.8151441899907823	-0.5164831875081032	0.0	0.8114858633627228	-0.5182459220580719	0.0	0.8751001631573483	-0.6154678368726952	0.0	0.8328955975191215	-0.7183125438246003	0.0	0.8681177632266314	-0.7449969106603884	0.0	0.8568525787409549	-0.7464818762089915	0.0	0.8195407292270709	-0.733325329151054	0.0	0.8240497552182966	-0.5163781431971983	0.0	0.8828468376830954	-0.6104730783224762	0.0	0.8336399076217322	-0.7056697919953303	0.0	0.8677938395272061	-0.7378615358879875	0.0	0.8629593662929184	-0.7312288852319332	0.0	0.8186924577231822	-0.7192529498055261	0.0	0.8281430372893842	-0.37690184188314013	0.0	0.864581215946509	-0.31048611765072975	0.0	0.8652119848427513	-0.3433555415782185	0.0	0.8206189889903042	-0.38484591001318363	0.0	0.8763238087431899	-0.3491131769655149	0.0	0.9161874080870643	-0.3027557351144501	0.0	0.8342246864511197	-0.38294579208599655	0.0	0.8814872111970997	-0.34587003603937894	0.0	0.9193027018442345	-0.3011648337036831	0.0
82	2.7505241090146746	0.8156821252903115	-0.5054617948341089	0.0	0.8113300690442595	-0.5072467959055831	0.0	0.8698087544577809	-0.6075815629111737	0.0	0.8348972589532596	-0.7153630590831727	0.0	0.8720231334605013	-0.7402097054891703	0.0	0.8596962477129556	-0.7424539209077454	0.0	0.8223529684041584	-0.7311852540830531	0.0	0.8258756963348682	-0.505244920429183	0.0	0.8843308340614114	-0.6012113337646441	0.0	0.8410002226875224	-0.6985269102965331	0.0	0.8779325413017811	-0.7280079307775846	0.0	0.8728601339986991	-0.7213185666332846	0.0	0.8267907633339515	-0.7136949765886959	0.0	0.829553887087292	-0.3649161313852908	0.0	0.86509615244116	-0.2981875756728313	0.0	0.8662732658039308	-0.3310232177011475	0.0	0.8223452652214591	-0.37312745003785	0.0	0.8770536178181225	-0.3358498223609877	0.0	0.9158050723460216	-0.2872652579052311	0.0	0.8359042695026248	-0.37125552385251315	0.0	0.8825961155683825	-0.33280135643935965	0.0	0.9196818293935288	-0.28625945986306633	0.0
83	2.784067085953878	0.8167093399085804	-0.4986268864480111	0.0	0.8114833294111374	-0.5003261611178326	0.0	0.8632843931851807	-0.6034994281209043	0.0	0.8357961612720441	-0.7153846378813605	0.0	0.8741059950511917	-0.737974080997252	0.0	0.8609177481876741	-0.740710886981452	0.0	0.8240005887608727	-0.7317491386199171	0.0	0.8278868005145407	-0.49823195008434334	0.0	0.8850436210447359	-0.5958030414587722	0.0	0.8488649386194507	-0.6948544167387986	0.0	0.8874269020617318	-0.7207614653887523	0.0	0.8822211603059821	-0.7144214932608146	0.0	0.8355755542121834	-0.7113141976033682	0.0	0.8312486099271749	-0.3564622973379656	0.0	0.8652872163808263	-0.28930631619648883	0.0	0.866916608752055	-0.3224458400453223	0.0	0.824392301457848	-0.3653048764479319	0.0	0.8781101441063651	-0.32531416087001486	0.0	0.9151107691783517	-0.27399756080508336	0.0	0.8371887098054385	-0.36337681339381805	0.0	0.8835821898240205	-0.32286394254096007	0.0	0.9194229113630213	-0.27402916726672477	0.0
84	2.817610062893081	0.8181996387483774	-0.49587911609594376	0.0	0.8120275214278744	-0.49749518733000386	0.0	0.856434925781528	-0.603068818150315	0.0	0.835508852003567	-0.7178421920828797	0.0	0.8741428058201295	-0.7383257190130681	0.0	0.8605133252062374	-0.7411398138717551	0.0	0.8243269787922937	-0.734575804488313	0.0	0.8299967452917261	-0.4954563133110061	0.0	0.8851195078958503	-0.5941971828167093	0.0	0.856422627330889	-0.6948307112904273	0.0	0.8955394205835937	-0.7171969159953965	0.0	0.890349542035944	-0.7115105073222444	0.0	0.8440608695087642	-0.7122073622305216	0.0	0.8331275211863639	-0.35152582073388583	0.0	0.8655256618934851	-0.2838169637411948	0.0	0.8672955443466286	-0.31759519524731294	0.0	0.8265718116113248	-0.36142427364008795	0.0	0.8793239070515145	-0.31790852063049724	0.0	0.9143126580863951	-0.2637023314542841	0.0	0.8380176299084989	-0.35933917570828855	0.0	0.8842793312062456	-0.3164573338333483	0.0	0.9185119850792138	-0.26503020438767805	0.0
85	2.8511530398322846	0.8200667097498483	-0.4971211135497116	0.0	0.8130210340360002	-0.4987034325413802	0.0	0.8500761544128215	-0.60628804670219	0.0	0.8340850407142083	-0.7225297584918834	0.0	0.8722183716494957	-0.7413977414281381	0.0	0.8586640924762788	-0.7439104213220761	0.0	0.8233878719022487	-0.7395250831874631	0.0	0.8320984640474507	-0.4969330485525029	0.0	0.8848419137718027	-0.5963555878695317	0.0	0.8627078059245743	-0.6984748219051038	0.0	0.9014898286250443	-0.7181485504040774	0.0	0.896486541741818	-0.7131863087434659	0.0	0.8511038864581963	-0.7164080506532401	0.0	0.8350200098077949	-0.3501287738125575	0.0	0.8660152464662639	-0.2816748267604785	0.0	0.867538618307125	-0.3163963862691864	0.0	0.8287533279022274	-0.3614531353250347	0.0	0.8804116691296658	-0.31407721737415434	0.0	0.9134530107310318	-0.25719966628166946	0.0	0.8382952897726806	-0.35910739097451366	0.0	0.8843306177877371	-0.313908866101843	0.0	0.9166918385289714	-0.2598294321537286	0.0
86	2.884696016771488	0.8221986993276661	-0.5023008605104831	0.0	0.8144526710020651	-0.5038766082720186	0.0	0.8447580420748806	-0.6130756887857778	0.0	0.8317114794923779	-0.7294865713343617	0.0	0.8687498690276775	-0.7473595855689831	0.0	0.8557146179930413	-0.7493444683035904	0.0	0.8214142769303249	-0.7465680411213692	0.0	0.834140432804924	-0.5025522229413738	0.0	0.8845552982476566	-0.6021723489583158	0.0	0.8668073020108247	-0.7055091845904222	0.0	0.9045485127820223	-0.7238354825872444	0.0	0.8999219359084009	-0.7193920410764622	0.0	0.8556874490214749	-0.7236701374128733	0.0	0.8366966812476131	-0.3524428859055505	0.0	0.8665724572432442	-0.28299130557179336	0.0	0.8676937579233553	-0.3189036310188985	0.0	0.8308205256947243	-0.3652979047451548	0.0	0.8811779328327747	-0.31411331014359894	0.0	0.9124742347514067	-0.25512452656945567	0.0	0.8379747708366	-0.36264112786438135	0.0	0.8834805745168233	-0.3153290975618639	0.0	0.9137644057962553	-0.2589417110567306	0.0
87	2.918238993710691	0.8245051582872708	-0.5113369586216086	0.0	0.8162354237992802	-0.5128336578359394	0.0	0.8407397048434787	-0.6230984072971444	0.0	0.8287663270307791	-0.7387130795143023	0.0	0.8644885059412404	-0.7562137943946106	0.0	0.8522133188904825	-0.7576394656221374	0.0	0.8187888989975495	-0.7555893399796678	0.0	0.8361562188146768	-0.5120081736438097	0.0	0.8845144868194055	-0.6114238083094763	0.0	0.8681087902753478	-0.7154099960749932	0.0	0.9042468297407829	-0.7338528115790361	0.0	0.9001753434087503	-0.7295298667665624	0.0	0.8571928893589619	-0.7334630475913888	0.0	0.8379609375411763	-0.3586934929255935	0.0	0.8667654068069893	-0.2880359987471346	0.0	0.8677289903743801	-0.3252930220228639	0.0	0.8326041917906836	-0.37277084096208135	0.0	0.8815196056621097	-0.3180489020158447	0.0	0.9112215649647554	-0.2577894268928415	0.0	0.8371639536092883	-0.3698773513144317	0.0	0.8817392237029683	-0.32059319209566534	0.0	0.9098446938568764	-0.26267829204410753	0.0
88	2.9517819706498947	0.8269001518370543	-0.523946819597788	0.0	0.8182547684097663	-0.5251700838468373	0.0	0.8380531482390638	-0.6357954605778348	0.0	0.8257632186133071	-0.7499728816295419	0.0	0.8603684451852307	-0.7676352304381849	0.0	0.8488810649405549	-0.7686247576389268	0.0	0.8159753783730256	-0.7663277326971429	0.0	0.8381792051264744	-0.5247548738712925	0.0	0.8846826309148615	-0.6237441310527204	0.0	0.8665386513697853	-0.7275718797590345	0.0	0.9006114734037942	-0.7473235625794139	0.0	0.8972158092042323	-0.7427109305389931	0.0	0.8556272475786394	-0.745140594695604	0.0	0.838737553064832	-0.3688917995319506	0.0	0.8662342137572491	-0.297009898306769	0.0	0.867564446564593	-0.335603437707129	0.0	0.8339059287608025	-0.383528587909643	0.0	0.8813912910125414	-0.32560981967691455	0.0	0.9094926023094206	-0.26503489013697223	0.0	0.8361351047299195	-0.38062428643586094	0.0	0.8793614496969823	-0.32937419029015713	0.0	0.9053432316898254	-0.2709199836716896	0.0
89	2.985324947589098	0.8292456597935737	-0.5394732669639157	0.0	0.8204092706834516	-0.5401743325722989	0.0	0.836537504777212	-0.6504488568145308	0.0	0.8231651849051743	-0.7627787630732318	0.0	0.8571611321586593	-0.781031082517548	0.0	0.8463918405885443	-0.7817446210593891	0.0	0.8133815008542763	-0.7783959216542857	0.0	0.8401497341821672	-0.5399894445409752	0.0	0.8846616766839547	-0.6385830348025383	0.0	0.8626510098471502	-0.7414672755032109	0.0	0.8942769748669008	-0.763104144781627	0.0	0.891617868256423	-0.7579502813593274	0.0	0.8516855755646809	-0.7581630427050436	0.0	0.8390836709061698	-0.38260144351206027	0.0	0.8648555716700178	-0.3097246864850988	0.0	0.867120286073014	-0.34940001821955785	0.0	0.8346029323994016	-0.3970146204056456	0.0	0.8808483826674304	-0.3361791009575912	0.0	0.9071739080458235	-0.27604554373413315	0.0	0.8352368753993906	-0.3944012963107521	0.0	0.8767356063315276	-0.3410875649056864	0.0	0.9007511130285559	-0.28291656687305916	0.0
90	3.018867924528301	0.8313766370799253	-0.5567810564000524	0.0	0.8226169697065877	-0.556779957344943	0.0	0.8358674869569972	-0.6661986289396571	0.0	0.8212604228479419	-0.7764394490078181	0.0	0.8552601318830153	-0.7956266325807448	0.0	0.8451699109790403	-0.7961791717832144	0.0	0.8112687902926908	-0.7912768252096792	0.0	0.8419167613052434	-0.5566224821499584	0.0	0.8839201990870286	-0.655143685654046	0.0	0.8574036286173546	-0.7566810173067303	0.0	0.8863988803978381	-0.7799999008631685	0.0	0.884457057144544	-0.7742836695283422	0.0	0.8464477328040702	-0.7722128083255041	0.0	0.8391281837531016	-0.3988770121127241	0.0	0.8627573167777894	-0.325417938458036	0.0	0.8663699615153321	-0.3656658931216667	0.0	0.8347093123375278	-0.41240140428645505	0.0	0.8799825511891844	-0.3489408742217627	0.0	0.9043256307927299	-0.289526743418406	0.0	0.8347447702807668	-0.4103074319711927	0.0	0.8742665540514863	-0.3548852810465614	0.0	0.8965054375623891	-0.29739677682178944	0.0
